<svg width="24" height="25" viewBox="0 0 24 25" fill="none" xmlns="http://www.w3.org/2000/svg">
<path d="M9.00001 10.92C9.01037 10.1275 9.32977 9.37047 9.89015 8.81009C10.4505 8.24972 11.2076 7.93032 12 7.91996C12.7924 7.93032 13.5495 8.24972 14.1099 8.81009C14.6703 9.37047 14.9897 10.1275 15 10.92C14.9897 11.7124 14.6703 12.4694 14.1099 13.0298C13.5495 13.5902 12.7924 13.9096 12 13.92C11.2076 13.9096 10.4505 13.5902 9.89015 13.0298C9.32977 12.4694 9.01037 11.7124 9.00001 10.92ZM12 19.92L16 20.92V17.84C14.7937 18.5664 13.408 18.9405 12 18.92C10.592 18.9405 9.20634 18.5664 8.00001 17.84V20.92M12 4.91996C11.212 4.90558 10.4293 5.05252 9.70018 5.35175C8.97103 5.65098 8.31078 6.09617 7.76002 6.65996C7.19013 7.21133 6.73979 7.87406 6.437 8.60693C6.13422 9.3398 5.98547 10.1271 6.00001 10.92C5.9896 11.7078 6.14035 12.4894 6.44301 13.2168C6.74567 13.9442 7.19385 14.6021 7.76002 15.15C8.30821 15.7192 8.96731 16.1699 9.69658 16.4744C10.4259 16.7788 11.2098 16.9305 12 16.92C12.7902 16.9305 13.5742 16.7788 14.3034 16.4744C15.0327 16.1699 15.6918 15.7192 16.24 15.15C16.8062 14.6021 17.2544 13.9442 17.557 13.2168C17.8597 12.4894 18.0104 11.7078 18 10.92C18.0146 10.1271 17.8658 9.3398 17.563 8.60693C17.2602 7.87406 16.8099 7.21133 16.24 6.65996C15.6892 6.09617 15.029 5.65098 14.2998 5.35175C13.5707 5.05252 12.788 4.90558 12 4.91996ZM20 10.92C19.9787 11.8798 19.7857 12.8281 19.43 13.72C19.1096 14.6274 18.6248 15.4681 18 16.2V23.92L12 21.92L6.00001 23.92V16.2C4.7057 14.7464 3.99352 12.8662 4.00001 10.92C3.98239 9.87054 4.18005 8.82865 4.5808 7.85861C4.98154 6.88856 5.57687 6.01095 6.33001 5.27996C7.06372 4.52006 7.94538 3.91859 8.92058 3.51269C9.89578 3.10679 10.9438 2.90506 12 2.91996C13.0562 2.90506 14.1043 3.10679 15.0795 3.51269C16.0547 3.91859 16.9363 4.52006 17.67 5.27996C18.4232 6.01095 19.0185 6.88856 19.4192 7.85861C19.82 8.82865 20.0176 9.87054 20 10.92Z" fill="currentColor"/>
</svg>
