<svg width="69" height="69" viewBox="0 0 69 69" fill="none" xmlns="http://www.w3.org/2000/svg">
<path fill-rule="evenodd" clip-rule="evenodd" d="M13.1914 34.5001C13.1914 32.8188 14.5543 31.4559 16.2355 31.4559H52.7649C54.4462 31.4559 55.8091 32.8188 55.8091 34.5001C55.8091 36.1813 54.4462 37.5442 52.7649 37.5442H16.2355C14.5543 37.5442 13.1914 36.1813 13.1914 34.5001Z" fill="white"/>
<path fill-rule="evenodd" clip-rule="evenodd" d="M34.4998 13.1912C36.181 13.1912 37.5439 14.5541 37.5439 16.2353L37.5439 52.7647C37.5439 54.4459 36.181 55.8088 34.4998 55.8088C32.8186 55.8088 31.4557 54.4459 31.4557 52.7647L31.4557 16.2353C31.4557 14.5541 32.8186 13.1912 34.4998 13.1912Z" fill="white"/>
</svg>
