<svg width="68" height="68" viewBox="0 0 68 68" fill="none" xmlns="http://www.w3.org/2000/svg">
<path d="M32.1667 51V35.8333H17C15.9875 35.8333 15.1667 35.0125 15.1667 34C15.1667 32.9875 15.9875 32.1667 17 32.1667H32.1667V17C32.1667 15.9875 32.9875 15.1667 34 15.1667C35.0125 15.1667 35.8333 15.9875 35.8333 17V32.1667H51C52.0125 32.1667 52.8333 32.9875 52.8333 34C52.8333 35.0125 52.0125 35.8333 51 35.8333H35.8333V51C35.8333 52.0125 35.0125 52.8333 34 52.8333C32.9875 52.8333 32.1667 52.0125 32.1667 51Z" fill="white"/>
</svg>
