<svg width="24" height="24" viewBox="0 0 24 24" fill="none" xmlns="http://www.w3.org/2000/svg">
<path d="M5.90785 13.3428L12.5323 19.9672C12.8027 20.2376 12.9325 20.5531 12.9217 20.9136C12.9108 21.2741 12.7698 21.5895 12.4985 21.8599C12.2281 22.1078 11.9127 22.2376 11.5522 22.2493C11.1916 22.261 10.8762 22.1312 10.6058 21.8599L1.68308 12.9372C1.54789 12.802 1.4519 12.6555 1.39512 12.4978C1.33834 12.3401 1.3104 12.1711 1.3113 11.9908C1.3113 11.8106 1.33969 11.6416 1.39647 11.4839C1.45325 11.3262 1.54879 11.1797 1.68308 11.0445L10.6058 2.12178C10.8537 1.87393 11.1637 1.75 11.5359 1.75C11.9082 1.75 12.229 1.87393 12.4985 2.12178C12.7689 2.39216 12.9041 2.71347 12.9041 3.0857C12.9041 3.45793 12.7689 3.77879 12.4985 4.04828L5.90785 10.6389H21.0156C21.3987 10.6389 21.72 10.7687 21.9796 11.0283C22.2391 11.2878 22.3685 11.6087 22.3676 11.9908C22.3676 12.3739 22.2378 12.6952 21.9782 12.9548C21.7186 13.2143 21.3978 13.3437 21.0156 13.3428H5.90785Z" fill="white"/>
</svg>
