<svg width="31" height="31" viewBox="0 0 31 31" fill="none" xmlns="http://www.w3.org/2000/svg">
<path d="M15.499 15.919H15.5C15.7603 15.919 15.9591 16.0026 16.1248 16.1683C16.2904 16.3339 16.3734 16.532 16.3728 16.7907V16.7917C16.3728 17.052 16.2892 17.2507 16.1235 17.4164C15.9578 17.5821 15.7598 17.6651 15.501 17.6645H15.5C15.2398 17.6645 15.041 17.5809 14.8753 17.4152C14.7096 17.2495 14.6267 17.0515 14.6273 16.7927V16.7917C14.6273 16.5315 14.7109 16.3327 14.8766 16.167C15.0422 16.0013 15.2403 15.9183 15.499 15.919Z" fill="white"/>
<path d="M10.3344 17.6645H10.3334C10.0731 17.6645 9.87434 17.5809 9.70862 17.4152C9.54296 17.2495 9.46 17.0515 9.46061 16.7927V16.7917C9.46061 16.5315 9.54421 16.3327 9.70992 16.167C9.87557 16.0013 10.0736 15.9183 10.3324 15.919H10.3334C10.5936 15.919 10.7924 16.0026 10.9581 16.1683C11.1238 16.3339 11.2067 16.532 11.2061 16.7907V16.7917C11.2061 17.052 11.1225 17.2507 10.9568 17.4164C10.7911 17.5821 10.5931 17.6651 10.3344 17.6645Z" fill="white"/>
<path d="M20.6657 15.919H20.6667C20.9269 15.919 21.1257 16.0026 21.2914 16.1683C21.4571 16.3339 21.5401 16.532 21.5394 16.7907V16.7917C21.5394 17.052 21.4559 17.2507 21.2901 17.4164C21.1245 17.5821 20.9265 17.6651 20.6677 17.6645H20.6667C20.4064 17.6645 20.2077 17.5809 20.042 17.4152C19.8763 17.2495 19.7933 17.0515 19.7939 16.7927V16.7917C19.7939 16.5315 19.8775 16.3327 20.0433 16.167C20.2089 16.0013 20.4069 15.9183 20.6657 15.919Z" fill="white"/>
<path d="M10.3344 22.8311H10.3334C10.0731 22.8311 9.87434 22.7475 9.70862 22.5818C9.54296 22.4162 9.46 22.2181 9.46061 21.9594V21.9584C9.46061 21.6981 9.5442 21.4993 9.70992 21.3336C9.87558 21.168 10.0736 21.085 10.3324 21.0856H10.3334C10.5936 21.0856 10.7924 21.1692 10.9581 21.3349C11.1238 21.5006 11.2067 21.6986 11.2061 21.9574V21.9584C11.2061 22.2186 11.1225 22.4174 10.9568 22.5831C10.7911 22.7488 10.5931 22.8317 10.3344 22.8311Z" fill="white"/>
<path d="M20.6677 22.8311H20.6667C20.4064 22.8311 20.2077 22.7475 20.042 22.5818C19.8763 22.4162 19.7933 22.2181 19.7939 21.9594V21.9584C19.7939 21.6981 19.8775 21.4993 20.0433 21.3336C20.2089 21.168 20.4069 21.085 20.6657 21.0856H20.6667C20.9269 21.0856 21.1257 21.1692 21.2914 21.3349C21.4571 21.5006 21.5401 21.6986 21.5394 21.9574V21.9584C21.5394 22.2186 21.4559 22.4174 21.2901 22.5831C21.1245 22.7488 20.9265 22.8317 20.6677 22.8311Z" fill="white"/>
<path d="M15.5 22.8311C15.2398 22.8311 15.041 22.7475 14.8753 22.5818C14.7096 22.4162 14.6267 22.2181 14.6273 21.9594V21.9584C14.6273 21.6981 14.7109 21.4993 14.8766 21.3336C15.0422 21.168 15.2403 21.085 15.499 21.0856H15.5C15.7603 21.0856 15.9591 21.1692 16.1248 21.3349C16.2904 21.5006 16.3734 21.6986 16.3728 21.9574V21.9584C16.3728 22.2186 16.2892 22.4174 16.1235 22.5831C15.9578 22.7488 15.7598 22.8317 15.501 22.8311H15.5Z" fill="white"/>
<path fill-rule="evenodd" clip-rule="evenodd" d="M4.92946 27.361C4.501 26.9325 4.29322 26.431 4.29395 25.8339V7.75004C4.29395 7.15172 4.50228 6.64961 4.93075 6.22114C5.35921 5.79268 5.86123 5.5849 6.45836 5.58563H8.16895V3.87504C8.16895 3.61479 8.25254 3.41601 8.41825 3.2503C8.58391 3.08464 8.78194 3.00168 9.04071 3.00229H9.0417C9.30195 3.00229 9.50072 3.08588 9.66643 3.25159C9.83209 3.41725 9.91505 3.61528 9.91444 3.87405V5.58563H21.0856V3.87504C21.0856 3.61479 21.1692 3.41601 21.3349 3.2503C21.5006 3.08464 21.6986 3.00168 21.9574 3.00229H21.9584C22.2186 3.00229 22.4174 3.08588 22.5831 3.25159C22.7488 3.41725 22.8317 3.61528 22.8311 3.87405V5.58563H24.5417C25.14 5.58563 25.6421 5.79395 26.0706 6.22243C26.4991 6.65088 26.7068 7.15291 26.7061 7.75004V25.8334C26.7061 26.4317 26.4978 26.9338 26.0693 27.3623C25.6409 27.7907 25.1388 27.9985 24.5417 27.9978H6.45836C5.86004 27.9978 5.35793 27.7895 4.92946 27.361ZM6.03944 12.4978V25.2523C6.03944 25.8046 6.48716 26.2523 7.03944 26.2523H23.9606C24.5129 26.2523 24.9606 25.8046 24.9606 25.2523V12.4978H6.03944ZM7.03944 7.33112C6.48716 7.33112 6.03944 7.77884 6.03944 8.33112V10.7523H24.9606V8.33112C24.9606 7.77884 24.5129 7.33112 23.9606 7.33112H7.03944Z" fill="white"/>
</svg>
