<svg width="69" height="69" viewBox="0 0 69 69" fill="none" xmlns="http://www.w3.org/2000/svg">
<path fill-rule="evenodd" clip-rule="evenodd" d="M19.4323 49.5676C18.2435 48.3788 18.2435 46.4513 19.4323 45.2625L45.2625 19.4323C46.4513 18.2435 48.3787 18.2435 49.5675 19.4323C50.7563 20.6211 50.7563 22.5486 49.5675 23.7374L23.7373 49.5676C22.5485 50.7564 20.6211 50.7564 19.4323 49.5676Z" fill="white"/>
<path fill-rule="evenodd" clip-rule="evenodd" d="M19.4324 19.4324C20.6212 18.2436 22.5487 18.2436 23.7375 19.4324L49.5677 45.2626C50.7565 46.4514 50.7565 48.3788 49.5677 49.5677C48.3789 50.7565 46.4514 50.7565 45.2626 49.5676L19.4324 23.7375C18.2436 22.5487 18.2436 20.6212 19.4324 19.4324Z" fill="white"/>
</svg>
