<svg width="69" height="69" viewBox="0 0 69 69" fill="none" xmlns="http://www.w3.org/2000/svg">
<path fill-rule="evenodd" clip-rule="evenodd" d="M32.7185 47.8602C31.3522 46.8805 31.0388 44.9787 32.0185 43.6124L47.8934 21.4741C48.8731 20.1079 50.7749 19.7945 52.1412 20.7741C53.5074 21.7538 53.8208 23.6556 52.8412 25.0219L36.9662 47.1602C35.9865 48.5265 34.0848 48.8399 32.7185 47.8602Z" fill="white"/>
<path fill-rule="evenodd" clip-rule="evenodd" d="M16.1539 32.5018C17.1335 31.1355 19.0353 30.8221 20.4016 31.8018L35.9658 42.9621C37.332 43.9418 37.6454 45.8436 36.6658 47.2099C35.6861 48.5762 33.7843 48.8895 32.418 47.9099L16.8538 36.7496C15.4876 35.7699 15.1742 33.8681 16.1539 32.5018Z" fill="white"/>
</svg>
