<svg width="70" height="69" viewBox="0 0 70 69" fill="none" xmlns="http://www.w3.org/2000/svg">
<path d="M46.4606 34.5C45.5987 34.5 44.772 34.1576 44.1625 33.5481C43.553 32.9386 43.2106 32.112 43.2106 31.25C43.2106 30.388 43.553 29.5614 44.1625 28.9519C44.772 28.3424 45.5987 28 46.4606 28C47.3226 28 48.1492 28.3424 48.7587 28.9519C49.3682 29.5614 49.7106 30.388 49.7106 31.25C49.7106 32.112 49.3682 32.9386 48.7587 33.5481C48.1492 34.1576 47.3226 34.5 46.4606 34.5ZM39.9606 25.8333C39.0987 25.8333 38.272 25.4909 37.6625 24.8814C37.053 24.2719 36.7106 23.4453 36.7106 22.5833C36.7106 21.7214 37.053 20.8947 37.6625 20.2852C38.272 19.6757 39.0987 19.3333 39.9606 19.3333C40.8226 19.3333 41.6492 19.6757 42.2587 20.2852C42.8682 20.8947 43.2106 21.7214 43.2106 22.5833C43.2106 23.4453 42.8682 24.2719 42.2587 24.8814C41.6492 25.4909 40.8226 25.8333 39.9606 25.8333ZM29.1273 25.8333C28.2653 25.8333 27.4387 25.4909 26.8292 24.8814C26.2197 24.2719 25.8773 23.4453 25.8773 22.5833C25.8773 21.7214 26.2197 20.8947 26.8292 20.2852C27.4387 19.6757 28.2653 19.3333 29.1273 19.3333C29.9892 19.3333 30.8159 19.6757 31.4254 20.2852C32.0349 20.8947 32.3773 21.7214 32.3773 22.5833C32.3773 23.4453 32.0349 24.2719 31.4254 24.8814C30.8159 25.4909 29.9892 25.8333 29.1273 25.8333ZM22.6273 34.5C21.7653 34.5 20.9387 34.1576 20.3292 33.5481C19.7197 32.9386 19.3773 32.112 19.3773 31.25C19.3773 30.388 19.7197 29.5614 20.3292 28.9519C20.9387 28.3424 21.7653 28 22.6273 28C23.4892 28 24.3159 28.3424 24.9254 28.9519C25.5349 29.5614 25.8773 30.388 25.8773 31.25C25.8773 32.112 25.5349 32.9386 24.9254 33.5481C24.3159 34.1576 23.4892 34.5 22.6273 34.5ZM34.5439 15C29.3722 15 24.4123 17.0545 20.7554 20.7114C17.0984 24.3684 15.0439 29.3283 15.0439 34.5C15.0439 39.6717 17.0984 44.6316 20.7554 48.2886C24.4123 51.9455 29.3722 54 34.5439 54C35.4059 54 36.2325 53.6576 36.842 53.0481C37.4515 52.4386 37.7939 51.612 37.7939 50.75C37.7939 49.905 37.4689 49.1467 36.9489 48.5833C36.4506 47.9983 36.1256 47.24 36.1256 46.4167C36.1256 45.5547 36.468 44.7281 37.0775 44.1186C37.687 43.5091 38.5137 43.1667 39.3756 43.1667H43.2106C46.0838 43.1667 48.8393 42.0253 50.8709 39.9937C52.9026 37.962 54.0439 35.2065 54.0439 32.3333C54.0439 22.7567 45.3123 15 34.5439 15Z" fill="white"/>
</svg>
