<svg width="69" height="69" viewBox="0 0 69 69" fill="none" xmlns="http://www.w3.org/2000/svg">
<path d="M25.25 19.7C25.25 18.7187 25.6398 17.7776 26.3337 17.0837C27.0276 16.3898 27.9687 16 28.95 16H40.05C41.0313 16 41.9724 16.3898 42.6663 17.0837C43.3602 17.7776 43.75 18.7187 43.75 19.7V23.4H51.15C51.6406 23.4 52.1112 23.5949 52.4581 23.9419C52.8051 24.2888 53 24.7593 53 25.25C53 25.7407 52.8051 26.2112 52.4581 26.5581C52.1112 26.9051 51.6406 27.1 51.15 27.1H49.1723L47.5684 49.5627C47.502 50.4962 47.0842 51.3698 46.3994 52.0076C45.7146 52.6454 44.8135 53 43.8776 53H25.1205C24.1847 53 23.2836 52.6454 22.5987 52.0076C21.9139 51.3698 21.4962 50.4962 21.4297 49.5627L19.8295 27.1H17.85C17.3593 27.1 16.8888 26.9051 16.5419 26.5581C16.1949 26.2112 16 25.7407 16 25.25C16 24.7593 16.1949 24.2888 16.5419 23.9419C16.8888 23.5949 17.3593 23.4 17.85 23.4H25.25V19.7ZM28.95 23.4H40.05V19.7H28.95V23.4ZM23.5369 27.1L25.1223 49.3H43.8795L45.4649 27.1H23.5369ZM30.8 30.8C31.2906 30.8 31.7612 30.9949 32.1081 31.3419C32.4551 31.6888 32.65 32.1593 32.65 32.65V43.75C32.65 44.2406 32.4551 44.7112 32.1081 45.0581C31.7612 45.4051 31.2906 45.6 30.8 45.6C30.3093 45.6 29.8388 45.4051 29.4919 45.0581C29.1449 44.7112 28.95 44.2406 28.95 43.75V32.65C28.95 32.1593 29.1449 31.6888 29.4919 31.3419C29.8388 30.9949 30.3093 30.8 30.8 30.8ZM38.2 30.8C38.6906 30.8 39.1612 30.9949 39.5081 31.3419C39.8551 31.6888 40.05 32.1593 40.05 32.65V43.75C40.05 44.2406 39.8551 44.7112 39.5081 45.0581C39.1612 45.4051 38.6906 45.6 38.2 45.6C37.7093 45.6 37.2388 45.4051 36.8919 45.0581C36.5449 44.7112 36.35 44.2406 36.35 43.75V32.65C36.35 32.1593 36.5449 31.6888 36.8919 31.3419C37.2388 30.9949 37.7093 30.8 38.2 30.8Z" fill="white"/>
</svg>
