<svg width="69" height="69" viewBox="0 0 69 69" fill="none" xmlns="http://www.w3.org/2000/svg">
<path d="M37.375 45.9815C37.375 46.7346 37.6779 47.4568 38.2171 47.9893C38.7562 48.5218 39.4875 48.821 40.25 48.821H45C45.5523 48.821 46 49.2687 46 49.821V53.5C46 54.0523 45.5523 54.5 45 54.5H38.8125C37.2312 54.5 34.5 53.2222 34.5 51.6605C34.5 53.2222 31.7688 54.5 30.1875 54.5H24C23.4477 54.5 23 54.0523 23 53.5V49.821C23 49.2687 23.4477 48.821 24 48.821H28.75C29.5125 48.821 30.2438 48.5218 30.7829 47.9893C31.3221 47.4568 31.625 46.7346 31.625 45.9815V23.0185C31.625 22.2654 31.3221 21.5432 30.7829 21.0107C30.2438 20.4782 29.5125 20.179 28.75 20.179H24C23.4477 20.179 23 19.7313 23 19.179V15.5C23 14.9477 23.4477 14.5 24 14.5H30.1875C31.7688 14.5 34.5 15.7778 34.5 17.3395C34.5 15.7778 37.2312 14.5 38.8125 14.5H45C45.5523 14.5 46 14.9477 46 15.5V19.179C46 19.7313 45.5523 20.179 45 20.179H40.25C39.4875 20.179 38.7562 20.4782 38.2171 21.0107C37.6779 21.5432 37.375 22.2654 37.375 23.0185V45.9815Z" fill="white"/>
</svg>
