<svg width="69" height="69" viewBox="0 0 69 69" fill="none" xmlns="http://www.w3.org/2000/svg">
<path d="M40.25 42.25C40.25 41.1454 41.1454 40.25 42.25 40.25H53.625C54.1773 40.25 54.625 40.6977 54.625 41.25V45C54.625 45.5523 54.1773 46 53.625 46H47C46.4477 46 46 46.4477 46 47V53.625C46 54.1773 45.5523 54.625 45 54.625H41.25C40.6977 54.625 40.25 54.1773 40.25 53.625V42.25ZM14.375 41.25C14.375 40.6977 14.8227 40.25 15.375 40.25H26.75C27.8546 40.25 28.75 41.1454 28.75 42.25V53.625C28.75 54.1773 28.3023 54.625 27.75 54.625H24C23.4477 54.625 23 54.1773 23 53.625V47C23 46.4477 22.5523 46 22 46H15.375C14.8227 46 14.375 45.5523 14.375 45V41.25ZM23 15.375C23 14.8227 23.4477 14.375 24 14.375H27.75C28.3023 14.375 28.75 14.8227 28.75 15.375V26.75C28.75 27.8546 27.8546 28.75 26.75 28.75H15.375C14.8227 28.75 14.375 28.3023 14.375 27.75V24C14.375 23.4477 14.8227 23 15.375 23H22C22.5523 23 23 22.5523 23 22V15.375ZM53.625 23C54.1773 23 54.625 23.4477 54.625 24V27.75C54.625 28.3023 54.1773 28.75 53.625 28.75H42.25C41.1454 28.75 40.25 27.8546 40.25 26.75V15.375C40.25 14.8227 40.6977 14.375 41.25 14.375H45C45.5523 14.375 46 14.8227 46 15.375V22C46 22.5523 46.4477 23 47 23H53.625Z" fill="white"/>
</svg>
