<svg width="69" height="69" viewBox="0 0 69 69" fill="none" xmlns="http://www.w3.org/2000/svg">
<path d="M34.5 29.5C33.1619 29.5 31.8785 30.0268 30.9323 30.9645C29.9861 31.9021 29.4545 33.1739 29.4545 34.5C29.4545 35.8261 29.9861 37.0979 30.9323 38.0355C31.8785 38.9732 33.1619 39.5 34.5 39.5C35.8381 39.5 37.1215 38.9732 38.0677 38.0355C39.0139 37.0979 39.5455 35.8261 39.5455 34.5C39.5455 33.1739 39.0139 31.9021 38.0677 30.9645C37.1215 30.0268 35.8381 29.5 34.5 29.5ZM34.5 42.8333C32.2698 42.8333 30.1309 41.9554 28.5539 40.3926C26.9769 38.8298 26.0909 36.7101 26.0909 34.5C26.0909 32.2899 26.9769 30.1702 28.5539 28.6074C30.1309 27.0446 32.2698 26.1667 34.5 26.1667C36.7302 26.1667 38.8691 27.0446 40.4461 28.6074C42.0231 30.1702 42.9091 32.2899 42.9091 34.5C42.9091 36.7101 42.0231 38.8298 40.4461 40.3926C38.8691 41.9554 36.7302 42.8333 34.5 42.8333ZM34.5 22C26.0909 22 18.9095 27.1833 16 34.5C18.9095 41.8167 26.0909 47 34.5 47C42.9091 47 50.0905 41.8167 53 34.5C50.0905 27.1833 42.9091 22 34.5 22Z" fill="white"/>
</svg>
