<svg width="69" height="69" viewBox="0 0 69 69" fill="none" xmlns="http://www.w3.org/2000/svg">
<path d="M14.375 16.375C14.375 15.2704 15.2704 14.375 16.375 14.375H27.75C28.3023 14.375 28.75 14.8227 28.75 15.375V19.125C28.75 19.6773 28.3023 20.125 27.75 20.125H21.125C20.5727 20.125 20.125 20.5727 20.125 21.125V27.75C20.125 28.3023 19.6773 28.75 19.125 28.75H15.375C14.8227 28.75 14.375 28.3023 14.375 27.75V16.375ZM40.25 15.375C40.25 14.8227 40.6977 14.375 41.25 14.375H52.625C53.7296 14.375 54.625 15.2704 54.625 16.375V27.75C54.625 28.3023 54.1773 28.75 53.625 28.75H49.875C49.3227 28.75 48.875 28.3023 48.875 27.75V21.125C48.875 20.5727 48.4273 20.125 47.875 20.125H41.25C40.6977 20.125 40.25 19.6773 40.25 19.125V15.375ZM48.875 41.25C48.875 40.6977 49.3227 40.25 49.875 40.25H53.625C54.1773 40.25 54.625 40.6977 54.625 41.25V52.625C54.625 53.7296 53.7296 54.625 52.625 54.625H41.25C40.6977 54.625 40.25 54.1773 40.25 53.625V49.875C40.25 49.3227 40.6977 48.875 41.25 48.875H47.875C48.4273 48.875 48.875 48.4273 48.875 47.875V41.25ZM27.75 48.875C28.3023 48.875 28.75 49.3227 28.75 49.875V53.625C28.75 54.1773 28.3023 54.625 27.75 54.625H16.375C15.2704 54.625 14.375 53.7296 14.375 52.625V41.25C14.375 40.6977 14.8227 40.25 15.375 40.25H19.125C19.6773 40.25 20.125 40.6977 20.125 41.25V47.875C20.125 48.4273 20.5727 48.875 21.125 48.875H27.75Z" fill="white"/>
</svg>
