<svg width="24" height="24" viewBox="0 0 24 24" fill="none" xmlns="http://www.w3.org/2000/svg">
<path d="M1.31146 5C1.31146 4.17157 1.98304 3.5 2.81146 3.5H21.1885C22.017 3.5 22.6885 4.17157 22.6885 5C22.6885 5.82843 22.017 6.5 21.1885 6.5H2.81146C1.98304 6.5 1.31146 5.82843 1.31146 5Z" fill="#F1F1F1"/>
<path d="M1.31146 12C1.31146 11.1716 1.98304 10.5 2.81146 10.5H21.1885C22.017 10.5 22.6885 11.1716 22.6885 12C22.6885 12.8284 22.017 13.5 21.1885 13.5H2.81146C1.98304 13.5 1.31146 12.8284 1.31146 12Z" fill="#F1F1F1"/>
<path d="M1.31146 19C1.31146 18.1716 1.98304 17.5 2.81146 17.5H17.3306C18.1591 17.5 18.8306 18.1716 18.8306 19C18.8306 19.8284 18.1591 20.5 17.3306 20.5H2.81146C1.98304 20.5 1.31146 19.8284 1.31146 19Z" fill="#F1F1F1"/>
</svg>
