<svg width="69" height="69" viewBox="0 0 69 69" fill="none" xmlns="http://www.w3.org/2000/svg">
<path d="M41 41.5C41 40.3954 41.8954 39.5 43 39.5H55C56.1046 39.5 57 40.3954 57 41.5V50.5C57 51.6046 56.1046 52.5 55 52.5H43C41.8954 52.5 41 51.6046 41 50.5V41.5Z" fill="white"/>
<path d="M20.5 45C19.9477 45 19.5 44.5523 19.5 44V25C19.5 24.4477 19.9477 24 20.5 24H48.5C49.0523 24 49.5 24.4477 49.5 25V33.5C49.5 34.0523 49.9477 34.5 50.5 34.5H54C54.5523 34.5 55 34.0523 55 33.5V20.5C55 19.3954 54.1046 18.5 53 18.5H16C14.8954 18.5 14 19.3954 14 20.5V48.5C14 49.6046 14.8954 50.5 16 50.5H35C35.5523 50.5 36 50.0523 36 49.5V46C36 45.4477 35.5523 45 35 45H20.5Z" fill="white"/>
</svg>
