<svg width="71" height="69" viewBox="0 0 71 69" fill="none" xmlns="http://www.w3.org/2000/svg">
<path fill-rule="evenodd" clip-rule="evenodd" d="M34.5293 15C23.7597 15 15.0293 23.7304 15.0293 34.5V51C15.0293 52.6569 16.3724 54 18.0293 54H34.5293C45.2988 54 54.0293 45.2696 54.0293 34.5C54.0293 23.7304 45.2988 15 34.5293 15ZM22.0293 35C22.0293 33.6193 23.1486 32.5 24.5293 32.5C25.91 32.5 27.0293 33.6193 27.0293 35C27.0293 36.3807 25.91 37.5 24.5293 37.5C23.1486 37.5 22.0293 36.3807 22.0293 35ZM31.5293 35C31.5293 33.6193 32.6486 32.5 34.0293 32.5C35.41 32.5 36.5293 33.6193 36.5293 35C36.5293 36.3807 35.41 37.5 34.0293 37.5C32.6486 37.5 31.5293 36.3807 31.5293 35ZM43.5293 32.5C42.1486 32.5 41.0293 33.6193 41.0293 35C41.0293 36.3807 42.1486 37.5 43.5293 37.5C44.91 37.5 46.0293 36.3807 46.0293 35C46.0293 33.6193 44.91 32.5 43.5293 32.5Z" fill="white"/>
</svg>
