<svg width="71" height="69" viewBox="0 0 71 69" fill="none" xmlns="http://www.w3.org/2000/svg">
<path d="M43.8015 54.3426C42.1202 54.3426 40.7574 52.9797 40.7574 51.2985V17.7287C40.7574 16.0474 42.1202 14.6846 43.8015 14.6846H49.2132C50.8945 14.6846 52.2573 16.0474 52.2573 17.7287V51.2985C52.2573 52.9797 50.8945 54.3426 49.2132 54.3426H43.8015ZM20.8014 54.3426C19.1202 54.3426 17.7573 52.9797 17.7573 51.2985V17.7287C17.7573 16.0474 19.1202 14.6846 20.8014 14.6846H26.2132C27.8944 14.6846 29.2573 16.0474 29.2573 17.7287V51.2985C29.2573 52.9797 27.8944 54.3426 26.2132 54.3426H20.8014Z" fill="white"/>
</svg>
