<svg width="69" height="68" viewBox="0 0 69 68" fill="none" xmlns="http://www.w3.org/2000/svg">
<path d="M43.1667 53.5551C41.5098 53.5551 40.1667 52.2119 40.1667 50.5551V17.4718C40.1667 15.8149 41.5098 14.4718 43.1667 14.4718H48.5C50.1569 14.4718 51.5 15.8149 51.5 17.4718V50.5551C51.5 52.2119 50.1569 53.5551 48.5 53.5551H43.1667ZM20.5 53.5551C18.8431 53.5551 17.5 52.2119 17.5 50.5551V17.4718C17.5 15.8149 18.8431 14.4718 20.5 14.4718H25.8333C27.4902 14.4718 28.8333 15.8149 28.8333 17.4718V50.5551C28.8333 52.2119 27.4902 53.5551 25.8333 53.5551H20.5Z" fill="white"/>
</svg>
