<svg width="70" height="69" viewBox="0 0 70 69" fill="none" xmlns="http://www.w3.org/2000/svg">
<path d="M38.9731 16.0378C37.5219 15.7141 36.0409 15.5422 34.5541 15.525C33.0328 15.5426 31.5466 15.7135 30.0956 16.0378C29.7855 16.1064 29.5048 16.2706 29.293 16.5073C29.0812 16.744 28.949 17.0411 28.9151 17.3569L28.5704 20.4518C28.521 20.8883 28.3701 21.3072 28.1298 21.675C27.8895 22.0428 27.5664 22.3492 27.1865 22.5697C26.8065 22.7902 26.3802 22.9187 25.9417 22.9449C25.5031 22.9711 25.0645 22.8943 24.661 22.7206L21.825 21.4725C21.5371 21.3457 21.217 21.3116 20.9089 21.3748C20.6008 21.438 20.3199 21.5955 20.1052 21.8253C18.0542 24.0201 16.527 26.651 15.6385 29.5205C15.5438 29.8226 15.5461 30.1466 15.6448 30.4473C15.7436 30.748 15.9339 31.0103 16.1892 31.1974L18.707 33.0524C19.0614 33.3128 19.3496 33.653 19.5483 34.0454C19.7469 34.4378 19.8504 34.8715 19.8504 35.3113C19.8504 35.7512 19.7469 36.1848 19.5483 36.5772C19.3496 36.9697 19.0614 37.3098 18.707 37.5703L16.1892 39.4302C15.9342 39.6172 15.7441 39.8792 15.6454 40.1795C15.5466 40.4799 15.5442 40.8036 15.6385 41.1054C16.527 43.9766 18.0528 46.61 20.1019 48.8089C20.3164 49.039 20.5972 49.1967 20.9053 49.2602C21.2134 49.3238 21.5336 49.2899 21.8217 49.1634L24.6709 47.9119C25.0723 47.7375 25.5089 47.6594 25.9458 47.6841C26.3827 47.7087 26.8078 47.8353 27.1871 48.0537C27.9554 48.4989 28.4682 49.2821 28.5688 50.1659L28.9118 53.2608C28.9455 53.5723 29.0749 53.8657 29.2822 54.1008C29.4894 54.3358 29.7644 54.5008 30.0693 54.5733C33.0034 55.2709 36.0603 55.2709 38.9945 54.5733C39.2994 54.5008 39.5743 54.3358 39.7816 54.1008C39.9889 53.8657 40.1183 53.5723 40.152 53.2608L40.495 50.1609C40.5415 49.7241 40.6905 49.3045 40.9297 48.9361C41.169 48.5677 41.4918 48.261 41.872 48.0409C42.2521 47.8207 42.6789 47.6934 43.1175 47.6693C43.5561 47.6452 43.9942 47.7249 44.3962 47.902L47.2438 49.1535C47.5318 49.28 47.852 49.3139 48.1601 49.2503C48.4683 49.1868 48.749 49.0291 48.9635 48.799C51.0115 46.6025 52.5373 43.9721 53.427 41.1038C53.5216 40.8017 53.5194 40.4777 53.4206 40.177C53.3218 39.8763 53.1315 39.614 52.8763 39.4269L50.3617 37.5703C50.0072 37.31 49.7189 36.9699 49.5201 36.5775C49.3213 36.1852 49.2176 35.7516 49.2175 35.3117C49.2173 34.8719 49.3207 34.4382 49.5192 34.0457C49.7177 33.6532 50.0057 33.3129 50.3601 33.0524L52.8746 31.1941C53.1292 31.0069 53.319 30.7448 53.4175 30.4444C53.5159 30.1441 53.5181 29.8205 53.4237 29.5189C52.5356 26.6495 51.009 24.0186 48.9586 21.8237C48.7439 21.5938 48.463 21.4364 48.1549 21.3732C47.8468 21.31 47.5267 21.3441 47.2388 21.4708L44.4028 22.719C44.0494 22.8745 43.6677 22.9553 43.2816 22.9564C42.5907 22.9555 41.9246 22.6995 41.4109 22.2376C40.8972 21.7757 40.5722 21.1403 40.4983 20.4535L40.152 17.3553C40.118 17.0402 39.9861 16.7437 39.775 16.5075C39.5638 16.2712 39.2823 16.1069 38.9731 16.0378ZM34.5327 41.9067C32.7835 41.9067 31.1059 41.2119 29.869 39.975C28.6322 38.7381 27.9373 37.0605 27.9373 35.3113C27.9373 33.5621 28.6322 31.8845 29.869 30.6476C31.1059 29.4108 32.7835 28.7159 34.5327 28.7159C36.2819 28.7159 37.9595 29.4108 39.1964 30.6476C40.4333 31.8845 41.1281 33.5621 41.1281 35.3113C41.1281 37.0605 40.4333 38.7381 39.1964 39.975C37.9595 41.2119 36.2819 41.9067 34.5327 41.9067Z" fill="white"/>
</svg>
