<svg width="69" height="69" viewBox="0 0 69 69" fill="none" xmlns="http://www.w3.org/2000/svg">
<path d="M23.8771 20.2155C23.9962 20.095 24.0907 19.9519 24.1552 19.7944C24.2197 19.637 24.2528 19.4682 24.2528 19.2978C24.2528 19.1274 24.2197 18.9586 24.1552 18.8011C24.0907 18.6437 23.9962 18.5006 23.8771 18.3801C23.758 18.2596 23.6166 18.164 23.4609 18.0988C23.3053 18.0336 23.1385 18 22.97 18C22.8016 18 22.6347 18.0336 22.4791 18.0988C22.3235 18.164 22.182 18.2596 22.0629 18.3801L17.8452 22.6496L16.1899 20.9724C15.9493 20.729 15.623 20.5923 15.2828 20.5923C14.9426 20.5923 14.6163 20.729 14.3757 20.9724C14.1352 21.2158 14 21.5459 14 21.8901C14 22.0605 14.0332 22.2293 14.0976 22.3867C14.1621 22.5442 14.2566 22.6873 14.3757 22.8078L16.9381 25.4001C17.0571 25.5208 17.1985 25.6165 17.3542 25.6819C17.5098 25.7472 17.6767 25.7809 17.8452 25.7809C18.0137 25.7809 18.1806 25.7472 18.3363 25.6819C18.4919 25.6165 18.6333 25.5208 18.7523 25.4001L23.8771 20.2155ZM31.2978 20.5939C30.7881 20.5939 30.2993 20.7988 29.9389 21.1634C29.5785 21.528 29.376 22.0225 29.376 22.5382C29.376 23.0538 29.5785 23.5483 29.9389 23.9129C30.2993 24.2775 30.7881 24.4824 31.2978 24.4824H53.0782C53.5879 24.4824 54.0767 24.2775 54.4371 23.9129C54.7975 23.5483 55 23.0538 55 22.5382C55 22.0225 54.7975 21.528 54.4371 21.1634C54.0767 20.7988 53.5879 20.5939 53.0782 20.5939H31.2978ZM31.2978 33.5554C30.7881 33.5554 30.2993 33.7603 29.9389 34.1249C29.5785 34.4895 29.376 34.984 29.376 35.4997C29.376 36.0153 29.5785 36.5098 29.9389 36.8744C30.2993 37.239 30.7881 37.4439 31.2978 37.4439H53.0782C53.5879 37.4439 54.0767 37.239 54.4371 36.8744C54.7975 36.5098 55 36.0153 55 35.4997C55 34.984 54.7975 34.4895 54.4371 34.1249C54.0767 33.7603 53.5879 33.5554 53.0782 33.5554H31.2978ZM29.376 48.4612C29.376 47.9455 29.5785 47.451 29.9389 47.0864C30.2993 46.7218 30.7881 46.5169 31.2978 46.5169H53.0782C53.5879 46.5169 54.0767 46.7218 54.4371 47.0864C54.7975 47.451 55 47.9455 55 48.4612C55 48.9768 54.7975 49.4713 54.4371 49.8359C54.0767 50.2005 53.5879 50.4054 53.0782 50.4054H31.2978C30.7881 50.4054 30.2993 50.2005 29.9389 49.8359C29.5785 49.4713 29.376 48.9768 29.376 48.4612ZM23.8771 34.4731C24.1177 34.2297 24.2528 33.8996 24.2528 33.5554C24.2528 33.2112 24.1177 32.8811 23.8771 32.6378C23.6365 32.3944 23.3102 32.2576 22.97 32.2576C22.6298 32.2576 22.3035 32.3944 22.0629 32.6378L17.8452 36.9073L16.1899 35.2301C15.9493 34.9867 15.623 34.8499 15.2828 34.8499C14.9426 34.8499 14.6163 34.9867 14.3757 35.2301C14.1352 35.4734 14 35.8035 14 36.1477C14 36.4919 14.1352 36.822 14.3757 37.0654L16.9381 39.6577C17.0571 39.7784 17.1985 39.8742 17.3542 39.9395C17.5098 40.0049 17.6767 40.0385 17.8452 40.0385C18.0137 40.0385 18.1806 40.0049 18.3363 39.9395C18.4919 39.8742 18.6333 39.7784 18.7523 39.6577L23.8771 34.4731ZM23.8771 45.5993C23.9964 45.7197 24.0911 45.8627 24.1557 46.0202C24.2203 46.1776 24.2535 46.3464 24.2535 46.5169C24.2535 46.6874 24.2203 46.8562 24.1557 47.0137C24.0911 47.1712 23.9964 47.3142 23.8771 47.4346L18.7523 52.6192C18.6333 52.7399 18.4919 52.8357 18.3363 52.901C18.1806 52.9664 18.0137 53 17.8452 53C17.6767 53 17.5098 52.9664 17.3542 52.901C17.1985 52.8357 17.0571 52.7399 16.9381 52.6192L14.3757 50.0269C14.1352 49.7835 14 49.4534 14 49.1092C14 48.765 14.1352 48.4349 14.3757 48.1916C14.6163 47.9482 14.9426 47.8114 15.2828 47.8114C15.623 47.8114 15.9493 47.9482 16.1899 48.1916L17.8452 49.8688L22.0629 45.5993C22.1819 45.4786 22.3233 45.3828 22.479 45.3174C22.6346 45.2521 22.8015 45.2185 22.97 45.2185C23.1385 45.2185 23.3054 45.2521 23.4611 45.3174C23.6167 45.3828 23.7581 45.4786 23.8771 45.5993Z" fill="white"/>
</svg>
