<svg width="69" height="69" viewBox="0 0 69 69" fill="none" xmlns="http://www.w3.org/2000/svg">
<path d="M62.0999 14.6625C62.0999 13.9762 61.8273 13.3181 61.342 12.8328C60.8568 12.3476 60.1987 12.075 59.5124 12.075C58.8262 12.075 58.168 12.3476 57.6828 12.8328C57.1975 13.3181 56.9249 13.9762 56.9249 14.6625V52.6125C56.9249 53.2987 57.1975 53.9568 57.6828 54.4421C58.168 54.9273 58.8262 55.2 59.5124 55.2C60.1987 55.2 60.8568 54.9273 61.342 54.4421C61.8273 53.9568 62.0999 53.2987 62.0999 52.6125V14.6625ZM12.0749 14.6625C12.0749 13.9762 11.8023 13.3181 11.317 12.8328C10.8318 12.3476 10.1737 12.075 9.4874 12.075C8.80115 12.075 8.14301 12.3476 7.65776 12.8328C7.17251 13.3181 6.8999 13.9762 6.8999 14.6625V52.6125C6.8999 53.2987 7.17251 53.9568 7.65776 54.4421C8.14301 54.9273 8.80115 55.2 9.4874 55.2C10.1737 55.2 10.8318 54.9273 11.317 54.4421C11.8023 53.9568 12.0749 53.2987 12.0749 52.6125V14.6625ZM18.0089 35.466L24.9089 42.366C25.3994 42.823 26.0482 43.0718 26.7185 43.06C27.3888 43.0482 28.0284 42.7766 28.5025 42.3025C28.9766 41.8285 29.2481 41.1889 29.26 40.5186C29.2718 39.8482 29.023 39.1995 28.5659 38.709L26.0819 36.225H42.9179L40.4339 38.709C40.1797 38.9458 39.9758 39.2315 39.8344 39.5489C39.6929 39.8663 39.6169 40.2089 39.6108 40.5564C39.6046 40.9038 39.6685 41.2489 39.7987 41.5711C39.9288 41.8933 40.1225 42.1859 40.3682 42.4316C40.6139 42.6773 40.9066 42.871 41.2288 43.0012C41.551 43.1313 41.8961 43.1952 42.2435 43.1891C42.5909 43.183 42.9336 43.1069 43.251 42.9655C43.5684 42.8241 43.854 42.6202 44.0909 42.366L50.9909 35.466C51.4755 34.9808 51.7476 34.3231 51.7476 33.6375C51.7476 32.9518 51.4755 32.2941 50.9909 31.809L44.0909 24.909C43.854 24.6547 43.5684 24.4508 43.251 24.3094C42.9336 24.168 42.5909 24.0919 42.2435 24.0858C41.8961 24.0797 41.551 24.1436 41.2288 24.2737C40.9066 24.4039 40.6139 24.5976 40.3682 24.8433C40.1225 25.089 39.9288 25.3816 39.7987 25.7038C39.6685 26.026 39.6046 26.3711 39.6108 26.7186C39.6169 27.066 39.6929 27.4086 39.8344 27.726C39.9758 28.0434 40.1797 28.3291 40.4339 28.566L42.9179 31.05H26.0819L28.5659 28.566C29.023 28.0754 29.2718 27.4267 29.26 26.7563C29.2481 26.086 28.9766 25.4464 28.5025 24.9724C28.0284 24.4983 27.3888 24.2267 26.7185 24.2149C26.0482 24.2031 25.3994 24.4519 24.9089 24.909L18.0089 31.809C17.5243 32.2941 17.2522 32.9518 17.2522 33.6375C17.2522 34.3231 17.5243 34.9808 18.0089 35.466Z" fill="white"/>
</svg>
